Coordinates
version=1
nRows=26
nColumns=24
inDegrees=yes

Units are S.I. units (second, meters, Newtons, ...)
Angles are in degrees.

endheader
time	pelvis_tilt	pelvis_list	pelvis_rotation	pelvis_tx	pelvis_ty	pelvis_tz	hip_flexion_r	hip_adduction_r	hip_rotation_r	knee_angle_r	ankle_angle_r	subtalar_angle_r	mtp_angle_r	hip_flexion_l	hip_adduction_l	hip_rotation_l	knee_angle_l	ankle_angle_l	subtalar_angle_l	mtp_angle_l	lumbar_extension	lumbar_bending	lumbar_rotation
      1.30833333	      2.39673904	      6.01530480	     -3.06325011	      0.18063966	      1.06895385	      0.33386971	     13.59758087	     -8.34963915	     -1.54639024	    -68.17806710	     -3.97688593	    -14.88818256	      7.70744590	      4.63265272	     10.76670628	     -3.62869076	     -6.00276625	     -1.70750341	     -5.88321467	      2.10056405	      1.01510650	     -4.38138104	      0.29083893
      1.31250000	      2.39317120	      6.04432994	     -3.13073175	      0.18552744	      1.06936883	      0.33372224	     14.25605564	     -8.28857372	     -1.20395143	    -68.17794825	     -3.41823949	    -14.80649727	      7.59851377	      4.30420451	     10.82998231	     -3.61966168	     -5.91482385	     -1.53294045	     -5.87258089	      2.07657030	      0.99566995	     -4.41497111	      0.25060525
      1.31666667	      2.41497431	      6.08584087	     -3.18169732	      0.19041407	      1.06980577	      0.33344201	     14.86943718	     -8.25643772	     -0.89007323	    -68.09536060	     -3.05981590	    -14.77728045	      7.54476482	      3.93549857	     10.92456409	     -3.51699611	     -5.79510833	     -1.42385408	     -5.83933628	      2.06439986	      0.93310831	     -4.38587853	      0.20612847
      1.32083333	      2.42645785	      6.10613526	     -3.25886262	      0.19529853	      1.07022616	      0.33331839	     15.48024250	     -8.17104551	     -0.54229467	    -67.95071446	     -2.51600131	    -14.70581986	      7.48607172	      3.57968463	     10.98306796	     -3.46904297	     -5.68506778	     -1.24229694	     -5.86725190	      2.04855902	      0.88866060	     -4.39877971	      0.15677821
      1.32500000	      2.43899951	      6.11956080	     -3.31184454	      0.20019926	      1.07065373	      0.33318812	     16.06094170	     -8.07598498	     -0.21801041	    -67.73353145	     -1.95938600	    -14.53788139	      7.42303692	      3.21925058	     11.03517907	     -3.42342473	     -5.57524477	     -1.07472475	     -5.89803641	      2.02832087	      0.85309479	     -4.42222840	      0.10750982
      1.32916667	      2.43892223	      6.07494193	     -3.28139210	      0.20508103	      1.07112347	      0.33314156	     16.59835161	     -7.90853462	      0.02295396	    -67.39074745	     -1.71722027	    -14.46207753	      7.39942158	      2.87598921	     11.00568568	     -3.33882767	     -5.49990250	     -1.00732108	     -5.90294062	      2.01999564	      0.77658662	     -4.43585553	      0.07987050
      1.33333333	      2.43920939	      6.11820788	     -3.35537868	      0.20998377	      1.07147398	      0.33297089	     17.17291149	     -7.84214919	      0.36319872	    -67.08615438	     -0.78715528	    -13.98522601	      7.29752392	      2.53195105	     11.10384007	     -3.36149244	     -5.38175166	     -0.73601920	     -6.03966656	      1.97532516	      0.77780208	     -4.50570666	      0.00266601
      1.33750000	      2.43455096	      6.12519919	     -3.38098243	      0.21490580	      1.07185636	      0.33278822	     17.70800835	     -7.73695814	      0.65986102	    -66.66676138	     -0.25745030	    -13.55579798	      7.17073492	      2.17258065	     11.15702172	     -3.23256216	     -5.24202263	     -0.63506430	     -6.10322139	      1.91469485	      0.76477378	     -4.49261088	     -0.07115474
      1.34166667	      2.42784930	      6.10391107	     -3.35725314	      0.21980127	      1.07225664	      0.33268956	     18.20790110	     -7.59335652	      0.89299902	    -66.14367440	     -0.10989580	    -13.53652202	      7.15226701	      1.82183358	     11.16433251	     -3.11156658	     -5.12653719	     -0.59655594	     -6.08967405	      1.90639472	      0.68261449	     -4.48787791	     -0.09739467
      1.34583333	      2.46244753	      6.13604965	     -3.40392282	      0.22465069	      1.07262928	      0.33247727	     18.68099708	     -7.51500862	      1.19844269	    -65.63045376	      0.62473692	    -13.03462397	      7.00177607	      1.41974288	     11.25687381	     -2.98022988	     -4.96833344	     -0.42692201	     -6.24643522	      1.81862299	      0.60012589	     -4.50313589	     -0.20564551
      1.35000000	      2.48775883	      6.11699108	     -3.40948573	      0.22962157	      1.07304480	      0.33238250	     19.10437832	     -7.36767545	      1.44804389	    -64.99259423	      1.00266723	    -12.90670823	      6.91240032	      1.01549226	     11.27583634	     -2.88756028	     -4.82010507	     -0.29678105	     -6.34551674	      1.76447325	      0.59035166	     -4.48596863	     -0.26722077
      1.35416667	      2.48706732	      6.12602111	     -3.43375206	      0.23453386	      1.07336699	      0.33225088	     19.56124823	     -7.24885041	      1.71662251	    -64.31222472	      1.24248900	    -12.82878598	      6.87410846	      0.63644914	     11.32990548	     -2.73358959	     -4.64074355	     -0.22393110	     -6.35838929	      1.74000453	      0.57164353	     -4.47798983	     -0.30792452
      1.35833333	      2.50105954	      6.12219410	     -3.44708734	      0.23949692	      1.07371785	      0.33215497	     19.96513625	     -7.11408811	      1.96881067	    -63.56418261	      1.60244176	    -12.68741896	      6.82926641	      0.23732051	     11.36676655	     -2.61620034	     -4.47170964	     -0.09685551	     -6.43822385	      1.70715544	      0.56082156	     -4.47603510	     -0.36232271
      1.36250000	      2.51335757	      6.11175967	     -3.41453413	      0.24437202	      1.07404636	      0.33200361	     20.34571442	     -6.98600680	      2.17557091	    -62.76653415	      2.09056235	    -12.33097703	      6.72991768	     -0.14622561	     11.39675907	     -2.49834578	     -4.33043238	      0.03161923	     -6.63026434	      1.62574626	      0.44369642	     -4.48662312	     -0.46670765
      1.36666667	      2.53251412	      6.10807820	     -3.41334154	      0.24931665	      1.07436711	      0.33189273	     20.70006407	     -6.85398797	      2.40632081	    -61.89499424	      2.33880999	    -12.20031861	      6.64118999	     -0.55686524	     11.43477975	     -2.35002371	     -4.14560195	      0.09639419	     -6.73742318	      1.55244603	      0.41256732	     -4.49394607	     -0.54602449
      1.37083333	      2.52118802	      6.12153532	     -3.42345659	      0.25423366	      1.07459644	      0.33180031	     21.08009999	     -6.73290087	      2.64740130	    -60.97797214	      2.49421535	    -12.18341695	      6.60851596	     -0.93240398	     11.48824362	     -2.20789619	     -3.95629130	      0.15124418	     -6.75222100	      1.52569472	      0.39243504	     -4.51211447	     -0.58173746
      1.37500000	      2.46662867	      6.12980741	     -3.39393256	      0.25913390	      1.07475718	      0.33176904	     21.47458367	     -6.60238414	      2.85607271	    -59.99824802	      2.62075057	    -12.18198104	      6.59416781	     -1.24555463	     11.52132537	     -2.12326264	     -3.80858142	      0.20292937	     -6.77275528	      1.51396802	      0.32287085	     -4.55832492	     -0.60132346
      1.37916667	      2.49264903	      6.12674681	     -3.41885548	      0.26418045	      1.07502629	      0.33165212	     21.75102791	     -6.46921595	      3.08378921	    -58.95134249	      2.82305924	    -12.16364435	      6.55639319	     -1.68770357	     11.56587483	     -1.98402401	     -3.58270837	      0.33450327	     -6.87079422	      1.47905799	      0.39691044	     -4.53108635	     -0.66551053
      1.38333333	      2.49161933	      6.12807979	     -3.41053361	      0.26914572	      1.07522381	      0.33154671	     22.03779051	     -6.34321797	      3.28458775	    -57.85527017	      2.96145613	    -12.16249864	      6.51801867	     -2.08375466	     11.60501196	     -1.85604192	     -3.38798236	      0.42528926	     -6.96121494	      1.44207574	      0.37359229	     -4.53781327	     -0.73017759
      1.38750000	      2.43027778	      6.15332457	     -3.38353976	      0.27404605	      1.07529050	      0.33153055	     22.37521446	     -6.23072953	      3.49226317	    -56.71558038	      3.05344455	    -12.18758834	      6.49978657	     -2.39626782	     11.65443236	     -1.76287122	     -3.22799908	      0.47430259	     -6.99697301	      1.42532786	      0.30412155	     -4.59535725	     -0.75944154
      1.39166667	      2.57185492	      6.13118659	     -3.35620839	      0.27899328	      1.07567559	      0.33124917	     22.44309299	     -6.12428639	      3.61143121	    -55.47588298	      3.01164446	    -12.40296392	      6.33179927	     -2.97678857	     11.68936552	     -1.46221157	     -2.97553804	      0.55477402	     -7.33019312	      1.24839312	      0.13410647	     -4.55209478	     -1.03643450
      1.39583333	      2.47946360	      6.16523048	     -3.34164843	      0.28397191	      1.07564509	      0.33121066	     22.76837333	     -6.02300878	      3.80634811	    -54.23739766	      3.08918878	    -12.43396965	      6.31736086	     -3.26288732	     11.75083501	     -1.41352325	     -2.79668533	      0.58861122	     -7.33699399	      1.23500066	      0.10195494	     -4.63650746	     -1.04457834
      1.40000000	      2.48266943	      6.16381226	     -3.36908361	      0.28907168	      1.07575427	      0.33116196	     22.94790795	     -5.88903707	      4.00917426	    -52.90940812	      3.07329083	    -12.56523855	      6.27922760	     -3.68655365	     11.78813349	     -1.32847800	     -2.56339224	      0.67839624	     -7.39133635	      1.19811670	      0.27354040	     -4.63616956	     -1.09017153
      1.40416667	      2.37341002	      6.21008054	     -3.35610311	      0.29402305	      1.07562928	      0.33112877	     23.25183649	     -5.80260840	      4.19200014	    -51.57621691	      3.10968367	    -12.64212611	      6.26390322	     -3.95192812	     11.86152931	     -1.26963916	     -2.38451394	      0.72342131	     -7.40984097	      1.18479361	      0.19865426	     -4.71356482	     -1.10602383
      1.40833333	      2.49201579	      6.16847871	     -3.30688750	      0.29905949	      1.07591823	      0.33097005	     23.22566979	     -5.67365392	      4.26249743	    -50.08317785	      2.59850720	    -13.42955727	      6.09077724	     -4.50803746	     11.85380480	     -1.05366912	     -2.15972697	      0.81863497	     -7.59500059	      1.00452297	      0.14807646	     -4.64667524	     -1.35593316
      1.41250000	      2.37926015	      6.22264585	     -3.31043438	      0.30404845	      1.07571735	      0.33096590	     23.48716148	     -5.59643345	      4.44893631	    -48.65803006	      2.65719672	    -13.47752420	      6.07473997	     -4.77378062	     11.93477431	     -1.01135734	     -1.97613596	      0.86122887	     -7.60600040	      0.98914790	      0.12839407	     -4.74906327	     -1.36203142
